<?xml version="1.0" standalone="no"?>
<!DOCTYPE svg PUBLIC "-//W3C//DTD SVG 20010904//EN"
 "http://www.w3.org/TR/2001/REC-SVG-20010904/DTD/svg10.dtd">
<svg version="1.0" xmlns="http://www.w3.org/2000/svg"
 width="700.000000pt" height="700.000000pt" viewBox="0 0 700.000000 700.000000"
 preserveAspectRatio="xMidYMid meet">
<metadata>
Created by potrace 1.14, written by Peter Selinger 2001-2017
</metadata>
<g transform="translate(0.000000,700.000000) scale(0.100000,-0.100000)"
fill="#000000" stroke="none">
<path d="M5098 5492 c-53 -21 -100 -41 -103 -44 -4 -3 18 -77 48 -165 422
-1227 403 -2574 -52 -3777 -33 -87 -59 -162 -56 -165 5 -9 215 -95 219 -90 11
11 140 375 180 504 117 386 189 747 233 1170 24 237 25 848 0 1085 -35 331
-82 603 -158 905 -52 204 -187 615 -202 615 -7 -1 -56 -18 -109 -38z"/>
<path d="M3720 5263 c-58 -20 -106 -37 -108 -38 -2 -2 17 -72 42 -156 150
-512 219 -950 232 -1479 16 -618 -85 -1299 -276 -1866 -17 -48 -30 -93 -30
-99 0 -11 217 -92 224 -84 9 10 101 310 136 444 125 475 178 869 187 1375 9
520 -33 933 -143 1415 -50 221 -139 526 -152 524 -4 0 -54 -17 -112 -36z"/>
<path d="M2348 4972 c-53 -15 -99 -30 -103 -34 -4 -4 9 -73 28 -155 99 -414
145 -768 154 -1203 13 -593 -65 -1163 -236 -1730 l-29 -95 111 -38 c61 -20
114 -37 118 -37 8 0 102 335 139 495 106 466 146 868 137 1398 -7 476 -50 829
-152 1247 -38 157 -45 180 -58 179 -7 0 -56 -13 -109 -27z"/>
</g>
</svg>
